<svg xmlns="http://www.w3.org/2000/svg" width="48" height="48" viewBox="0 0 48 48" fill="none">
  <path d="M29.9558 18.573H28.7131V20.007H29.9558V18.573Z" fill="currentColor"/>
  <path d="M31.1506 20.0071H29.908V21.4411H31.1506V20.0071Z" fill="currentColor"/>
  <path d="M36.4081 21.4404H31.1511V22.8744H36.4081V21.4404Z" fill="currentColor"/>
  <path d="M37.6509 12.8857H36.4082V21.4406H37.6509V12.8857Z" fill="currentColor"/>
  <path d="M39.0845 18.573H37.6514V20.007H39.0845V18.573Z" fill="currentColor"/>
  <path d="M41.5701 17.1633H39.0842V18.5973H41.5701V17.1633Z" fill="currentColor"/>
  <path d="M42.8603 18.573H41.5703V24.2939H42.8603V18.573Z" fill="currentColor"/>
  <path d="M44.1509 24.2944H42.8601V31.3344H44.1509V24.2944Z" fill="currentColor"/>
  <path d="M42.8601 31.406H41.5847V32.8395H42.8601V31.406Z" fill="currentColor"/>
  <path d="M41.5846 32.8394H40.3083V34.2733H41.5846V32.8394Z" fill="currentColor"/>
  <path d="M40.2706 34.2734H13.3215V35.707H40.2706V34.2734Z" fill="currentColor"/>
  <path d="M35.056 35.707H33.7798V37.141H35.056V35.707Z" fill="currentColor"/>
  <path d="M39.0053 35.707H37.7295V37.141H39.0053V35.707Z" fill="currentColor"/>
  <path d="M37.7299 37.1409H35.0559V38.5744H37.7299V37.1409Z" fill="currentColor"/>
  <path d="M32.5489 37.1409H28.6194V38.5744H32.5489V37.1409Z" fill="currentColor"/>
  <path d="M32.549 35.707H31.2727V37.141H32.549V35.707Z" fill="currentColor"/>
  <path d="M28.7377 35.707H27.4619V37.141H28.7377V35.707Z" fill="currentColor"/>
  <path d="M35.1391 10H13.3215V11.434H35.1391V10Z" fill="currentColor"/>
  <path d="M36.4081 11.4336H35.1389V12.8857H36.4081V11.4336Z" fill="currentColor"/>
  <path d="M28.713 17.1633H26.1592V18.573H28.713V17.1633Z" fill="currentColor"/>
  <path d="M26.1592 18.573H24.8674V24.2943H26.1592V18.573Z" fill="currentColor"/>
  <path d="M24.8674 24.2944H23.5598V31.3843H24.8674V24.2944Z" fill="currentColor"/>
  <path d="M26.1592 31.3843H24.8674V32.8231H26.1592V31.3843Z" fill="currentColor"/>
  <path d="M27.4619 32.8232H26.1592V34.2736H27.4619V32.8232Z" fill="currentColor"/>
  <path d="M31.2726 30.0103H30.0012V32.823H31.2726V30.0103Z" fill="currentColor"/>
  <path d="M39.0054 31.417H31.2727V32.8395H39.0054V31.417Z" fill="currentColor"/>
  <path d="M39.0053 30.0103H37.7295V31.4173H39.0053V30.0103Z" fill="currentColor"/>
  <path d="M35.1389 30.0103H33.8586V31.4173H35.1389V30.0103Z" fill="currentColor"/>
  <path d="M36.4081 27.1658H35.1389V28.5551H36.4081V27.1658Z" fill="currentColor"/>
  <path d="M39.0053 27.1658H37.7295V28.5551H39.0053V27.1658Z" fill="currentColor"/>
  <path d="M40.2706 25.6948H39.0054V27.1659H40.2706V25.6948Z" fill="currentColor"/>
  <path d="M40.2706 27.1658H39.0054V28.5551H40.2706V27.1658Z" fill="currentColor"/>
  <path d="M31.2726 25.6948H30.0012V27.1659H31.2726V25.6948Z" fill="currentColor"/>
  <path d="M31.2726 27.1658H30.0012V28.5551H31.2726V27.1658Z" fill="currentColor"/>
  <path d="M30.0012 27.1658H28.7378V28.5551H30.0012V27.1658Z" fill="currentColor"/>
  <path d="M12.0005 12.8318H10.7578V32.7859H12.0005V12.8318Z" fill="currentColor"/>
  <path d="M13.3219 11.4336H12.001V12.8318H13.3219V11.4336Z" fill="currentColor"/>
  <path d="M13.3215 32.7861H9.45605V34.2736H13.3215V32.7861Z" fill="currentColor"/>
  <path d="M9.45589 34.2734H8.17212V38.5104H9.45589V34.2734Z" fill="currentColor"/>
  <path d="M13.3215 37.1174H9.45605V38.5103H13.3215V37.1174Z" fill="currentColor"/>
  <path d="M14.538 35.707H12.001V37.1172H14.538V35.707Z" fill="currentColor"/>
  <path d="M17.1418 35.707H15.8943V38.5105H17.1418V35.707Z" fill="currentColor"/>
  <path d="M19.7098 37.1086H17.1418V38.5104H19.7098V37.1086Z" fill="currentColor"/>
  <path d="M20.9754 35.707H19.7102V37.1088H20.9754V35.707Z" fill="currentColor"/>
  <path d="M8.1722 20.0071H3V21.4335H8.1722V20.0071Z" fill="currentColor"/>
  <path d="M4.2904 21.4404H3V24.2938H4.2904V21.4404Z" fill="currentColor"/>
  <path d="M5.58643 22.8745H4.29028V25.6947H5.58643V22.8745Z" fill="currentColor"/>
  <path d="M6.87152 24.2944H5.58643V27.1659H6.87152V24.2944Z" fill="currentColor"/>
  <path d="M8.1721 25.6948H6.87109V28.5553H8.1721V25.6948Z" fill="currentColor"/>
  <path d="M10.7578 27.1658H8.17212V28.5551H10.7578V27.1658Z" fill="currentColor"/>
  <path d="M10.7579 28.5552H9.46533V30.0104H10.7579V28.5552Z" fill="currentColor"/>
  <path d="M10.7579 22.8674H9.46533V25.6947H10.7579V22.8674Z" fill="currentColor"/>
  <path d="M9.46515 21.4404H6.87109V22.8669H9.46515V21.4404Z" fill="currentColor"/>
  <path d="M9.46524 22.8674H8.16821V24.2811H9.46524V22.8674Z" fill="currentColor"/>
  <path d="M33.8588 15.7531V14.3669H32.5489V12.8852L15.8943 12.8313V14.2233H14.5381V15.7527L13.3219 15.705L13.2698 30.0098H14.5381V31.4169H15.8943V30.0098H17.1419V31.4169H15.8943V32.7859L24.8675 32.823V31.3842H23.5598V24.2943H24.8675V18.5729H26.1592V17.1633H28.7131V18.5729H29.9557L29.908 20.0069H31.1507V21.4409H35.1385V15.7531H33.8588ZM15.8943 27.1251H14.5381V25.73H15.8943V27.1251ZM17.1419 17.1633H15.8943V15.8009H17.1419V17.1633ZM18.4261 22.8744H19.7103V24.281H18.4261V22.8744ZM20.9755 30.0103H19.7103V28.5551H20.9755V30.0103ZM22.2129 21.4404H20.9755V20.0065H22.2129V21.4404ZM24.8675 15.8009H23.5598V14.3192H24.8675V15.8009ZM28.7131 15.8009H27.462V14.3192H28.7131V15.8009ZM32.5489 18.5729H31.2726V17.1633H32.5489V18.5729Z" fill="currentColor"/>
</svg>