<svg width="100" height="100" viewBox="0 0 100 100" fill="none" xmlns="http://www.w3.org/2000/svg">
<g clip-path="url(#clip0_39_171)">
<path d="M16.8909 58.0184V53.7474H23.4098V58.0184H16.8909Z" fill="#999999"/>
<path d="M12.0579 55.5458V51.9492H23.2974V55.5458H12.0579Z" fill="#999999"/>
<path d="M9.69751 53.7475V47.0038H14.4181V53.7475H9.69751Z" fill="#999999"/>
<path d="M7 52.7359V47.5657H9.80989V52.7359H7Z" fill="black"/>
<path d="M9.47266 47.5657V44.8682H14.3057V47.5657H9.47266Z" fill="black"/>
<path d="M14.3057 52.7359V47.5657H17.0032V52.7359H14.3057Z" fill="black"/>
<path d="M14.3057 52.7359V49.7012H24.1965V52.7359H14.3057Z" fill="black"/>
<path d="M17.3403 60.2664V57.7937H24.8708V60.2664H17.3403Z" fill="black"/>
<path d="M11.9453 57.7937V55.0962H17.4527V57.7937H11.9453Z" fill="black"/>
<path d="M9.58496 55.3211V52.5112H12.0577V55.3211H9.58496Z" fill="black"/>
<path d="M7 52.7359V47.4533H9.69749V52.7359H7Z" fill="black"/>
<path d="M60.5623 73.5617V69.4655H66.157V73.5617H60.5623Z" fill="#999999"/>
<path d="M65.9573 75.1602V67.867H68.1552V75.1602H65.9573Z" fill="black"/>
<path d="M60.5623 75.4599V73.262H68.1552V75.4599H60.5623Z" fill="black"/>
<path d="M58.0647 73.2619V67.767H60.4625V73.2619H58.0647Z" fill="black"/>
<path d="M73.2629 73.5617V69.4655H78.8577V73.5617H73.2629Z" fill="#999999"/>
<path d="M78.658 75.1602V67.867H80.8559V75.1602H78.658Z" fill="black"/>
<path d="M73.2629 75.4599V73.262H80.8559V75.4599H73.2629Z" fill="black"/>
<path d="M70.7654 73.2619V67.767H73.1632V73.2619H70.7654Z" fill="black"/>
<path d="M35.0486 73.5617V69.4655H40.6434V73.5617H35.0486Z" fill="#999999"/>
<path d="M40.4436 75.1602V67.867H42.6416V75.1602H40.4436Z" fill="black"/>
<path d="M35.0486 75.4599V73.262H42.6415V75.4599H35.0486Z" fill="black"/>
<path d="M32.5508 73.2619V67.767H34.9485V73.2619H32.5508Z" fill="black"/>
<path d="M21.9487 73.3042V67.3473H27.5685V73.3042H21.9487Z" fill="#999999"/>
<path d="M27.1857 68.0957L26.811 64.574H71.3946V68.0957H27.1857Z" fill="#FFCC99"/>
<path d="M24.78 67.6738V65.1047H27.0922V67.6738H24.78Z" fill="black"/>
<path d="M23.814 63.9746V59.4039H26.1368L25.2376 64.7239L23.814 63.9746Z" fill="#FFCC99"/>
<path d="M24.7878 65.3982L24.9377 59.3289H73.7923V65.3982H24.7878Z" fill="#FFCC99"/>
<path d="M26.8352 35.3038L27.06 26.0553H71.2796L71.7934 35.3038H26.8352Z" fill="#FFCC99"/>
<path d="M24.6514 35.0469V28.8812H73.72V35.0469H24.6514Z" fill="#FFCC99"/>
<path d="M23.3669 60.0951V29.9089H74.3624V60.0951H23.3669Z" fill="#FFCC99"/>
<path d="M22.2109 64.9764V29.2667H24.6515V64.9764H22.2109Z" fill="black"/>
<path d="M27.1455 70.7566V67.8022H71.4079V70.7566H27.1455Z" fill="black"/>
<path d="M71.2795 67.8022V65.2332H73.7201V67.8022H71.2795Z" fill="black"/>
<path d="M73.7201 65.2332V29.3951H76.1607V65.2332H73.7201Z" fill="black"/>
<path d="M71.2795 29.2666V26.826H73.5917V29.2666H71.2795Z" fill="black"/>
<path d="M26.8352 26.5691V24.0001H71.408V26.5691H26.8352Z" fill="black"/>
<path d="M24.6514 29.2666V26.9544H27.0919V29.2666H24.6514Z" fill="black"/>
<path d="M27.0022 60.3886V34.4127H71.0612V60.3886H27.0022Z" fill="#FF99FF"/>
<path d="M29.6997 63.2858V31.8151H68.4636V63.2858H29.6997Z" fill="#FF99FF"/>
<path d="M29.6997 63.2858V31.8151H68.4636V63.2858H29.6997Z" fill="#FF99FF"/>
<path d="M32.2971 65.0842V28.718H65.766V65.0842H32.2971Z" fill="#FF99FF"/>
<path d="M32.3401 37.2445V34.3472H35.1375V37.2445H32.3401Z" fill="#FF3399"/>
<path d="M45.1284 34.4471V31.5498H47.9258V34.4471H45.1284Z" fill="#FF3399"/>
<path d="M52.9211 34.6469V31.7496H55.7185V34.6469H52.9211Z" fill="#FF3399"/>
<path d="M63.1117 39.942V37.0447H65.9091V39.942H63.1117Z" fill="#FF3399"/>
<path d="M42.7307 44.7376V41.8403H45.5281V44.7376H42.7307Z" fill="#FF3399"/>
<path d="M45.2283 52.6302V49.7329H48.0257V52.6302H45.2283Z" fill="#FF3399"/>
<path d="M34.738 49.5331V46.6358H37.5354V49.5331H34.738Z" fill="#FF3399"/>
<path d="M29.7427 55.3277V52.4304H32.5401V55.3277H29.7427Z" fill="#FF3399"/>
<path d="M40.1331 60.0234V57.1261H42.9304V60.0234H40.1331Z" fill="#FF3399"/>
<path d="M32.74 62.8208V59.9235H35.5374V62.8208H32.74Z" fill="#FF3399"/>
<path d="M58.9109 67.9725V64.069H84.9224V67.9725H58.9109Z" fill="#999999"/>
<path d="M56.6628 65.3534V62.9128H88.5832V65.3534H56.6628Z" fill="#999999"/>
<path d="M82.4818 43.324V39.4062H87.6199V43.324H82.4818Z" fill="#999999"/>
<path d="M79.8485 46.8563V41.654H87.6841V46.8563H79.8485Z" fill="#999999"/>
<path d="M77.3436 48.9759V44.4159H87.9409V48.9759H77.3436Z" fill="#999999"/>
<path d="M63.9847 51.6734V46.0857H90.2917V51.6734H63.9847Z" fill="#999999"/>
<path d="M62.3148 52.5082V43.9662H67.0675V52.5082H62.3148Z" fill="#999999"/>
<path d="M60.7092 53.0221V41.0118H64.5628V53.0221H60.7092Z" fill="#999999"/>
<path d="M57.1768 54.3065V38.8923H61.8653V54.3065H57.1768Z" fill="#999999"/>
<path d="M53.9653 62.3991L54.0296 61.8853H56.0206V63.1698L55.0405 62.8504L53.9653 62.3991Z" fill="#999999"/>
<path d="M54.4151 63.6193L54.2368 61.8878L54.8647 61.1145H90.3175V63.6835L54.4151 63.6193Z" fill="#999999"/>
<path d="M53.3425 62.3542V49.7059H91.6469V62.3542H53.3425Z" fill="#999999"/>
<path d="M51.73 62.9487V49.7161H54.3503V62.9487H51.73Z" fill="black"/>
<path d="M54.3503 49.8471V39.3658H57.2327V49.8471H54.3503Z" fill="black"/>
<path d="M57.1016 39.3659V37.1387H62.0802V39.3659H57.1016Z" fill="black"/>
<path d="M61.8182 41.9271V39.1039H64.5679V41.9271H61.8182Z" fill="black"/>
<path d="M64.5696 44.8864V41.8552H67.2371V44.8864H64.5696Z" fill="black"/>
<path d="M66.7968 47.0958V44.6065H77.5401V47.0958H66.7968Z" fill="black"/>
<path d="M77.2781 44.7375V41.8552H79.9601V44.7375H77.2781Z" fill="black"/>
<path d="M79.8496 41.8551V39.3658H82.5187V41.8551H79.8496Z" fill="black"/>
<path d="M82.5187 39.6279V37.1386H87.7593V39.6279H82.5187Z" fill="black"/>
<path d="M87.4973 49.8472V39.1039H90.4884V49.8472H87.4973Z" fill="black"/>
<path d="M90.3798 62.8177V49.454H93.0001V62.8177H90.3798Z" fill="black"/>
<path d="M87.6283 65.4381V62.5557H90.5107V65.4381H87.6283Z" fill="black"/>
<path d="M54.3687 65.4989V62.8015H56.9537V65.4989H54.3687Z" fill="black"/>
<path d="M56.9536 67.747V65.1619H59.2015V67.747H56.9536Z" fill="black"/>
<path d="M84.4407 68.0188V65.1415H87.4978V68.0188H84.4407Z" fill="black"/>
<path d="M59.2642 70.5365V67.6592H84.4408V70.5365H59.2642Z" fill="black"/>
<path d="M61.9296 57.4536V52.444H66.875V57.4536H61.9296Z" fill="black"/>
<path d="M79.8485 57.4536V52.444H84.7939V57.4536H79.8485Z" fill="black"/>
<path d="M61.9296 55.3984V52.444H64.6913V55.3984H61.9296Z" fill="#EA0000"/>
<path d="M79.8485 55.3984V52.444H82.6102V55.3984H79.8485Z" fill="#EA0000"/>
<path d="M64.5627 64.9681V59.8942H66.8107V64.9681H64.5627Z" fill="black"/>
<path d="M72.4625 64.9681V59.8942H74.7104V64.9681H72.4625Z" fill="black"/>
<path d="M80.1697 64.9681V59.8942H82.4176V64.9681H80.1697Z" fill="black"/>
<path d="M64.5627 65.1608V62.7844H82.6103V65.1608H64.5627Z" fill="black"/>
<path d="M57.0107 62.9217V57.3469H61.8662V62.9217H57.0107Z" fill="#FF9999"/>
<path d="M85.0647 62.9217V57.3469H90.3398V62.9217H85.0647Z" fill="#FF9999"/>
<path d="M74.8142 57.3469V55.069H77.212V57.3469H74.8142Z" fill="black"/>
<path d="M19.4758 75.5522V67.5721H22.1733V75.5522H19.4758Z" fill="black"/>
<path d="M19.5884 75.5522V72.8547H27.3437V75.5522H19.5884Z" fill="black"/>
<path d="M27.2312 72.8547V67.5721H29.7039V72.8547H27.2312Z" fill="black"/>
<path d="M22.061 68.0217V65.549H27.2312V68.0217H22.061Z" fill="black"/>
<path d="M22.061 67.235V63.8631H24.5337V67.235H22.061Z" fill="black"/>
<rect x="65" y="53" width="33" height="2" fill="#FF0038" fill-opacity="0.25"/>
<rect x="83" y="53" width="33" height="2" fill="#FF0038" fill-opacity="0.25"/>
</g>
<defs>
<clipPath id="clip0_39_171">
<rect width="100" height="100" fill="white"/>
</clipPath>
</defs>
</svg>
