<svg width="158" height="39" viewBox="0 0 158 39" fill="none" xmlns="http://www.w3.org/2000/svg">
<path d="M138.708 6.88889V11.3333H143.153V20.2222H147.597V6.88889H156.486V38H147.597V33.5555H143.153V29.1111H138.708V20.2222H134.264V38H125.375V6.88889H138.708Z" fill="black"/>
<path fill-rule="evenodd" clip-rule="evenodd" d="M139.708 5.88889V10.3333H144.153V19.2222H146.597V5.88889H157.486V39H146.597V34.5555H142.153V30.1111H137.708V21.2222H135.264V39H124.375V5.88889H139.708ZM134.264 20.2222H138.708V29.1111H143.153V33.5555H147.597V38H156.486V6.88889H147.597V20.2222H143.153V11.3333H138.708V6.88889H125.375V38H134.264V20.2222Z" fill="black"/>
<path d="M94.2812 38V6.88889H120.948V11.3333H103.17V20.2222H116.503V24.6667H103.17V33.5555H120.948V38H94.2812Z" fill="black"/>
<path fill-rule="evenodd" clip-rule="evenodd" d="M93.2812 39V5.88889H121.948V12.3333H104.17V19.2222H117.503V25.6667H104.17V32.5555H121.948V39H93.2812ZM103.17 33.5555V24.6667H116.503V20.2222H103.17V11.3333H120.948V6.88889H94.2812V38H120.948V33.5555H103.17Z" fill="black"/>
<path d="M67.6319 33.5555H63.1875V11.3333H67.6319V6.88889H85.4097V11.3333H72.0764V33.5555H80.9653V24.6667H76.5208V20.2222H89.8542V38H67.6319V33.5555Z" fill="black"/>
<path fill-rule="evenodd" clip-rule="evenodd" d="M62.1875 34.5555V10.3333H66.6319V5.88889H86.4097V12.3333H73.0764V32.5555H79.9653V25.6667H75.5208V19.2222H90.8542V39H66.6319V34.5555H62.1875ZM67.6319 33.5555V38H89.8542V20.2222H76.5208V24.6667H80.9653V33.5555H72.0764V11.3333H85.4097V6.88889H67.6319V11.3333H63.1875V33.5555H67.6319Z" fill="black"/>
<path d="M32.0938 38V6.88889H58.7604V11.3333H40.9826V20.2222H54.316V24.6667H40.9826V33.5555H58.7604V38H32.0938Z" fill="black"/>
<path fill-rule="evenodd" clip-rule="evenodd" d="M31.0938 39V5.88889H59.7604V12.3333H41.9826V19.2222H55.316V25.6667H41.9826V32.5555H59.7604V39H31.0938ZM40.9826 33.5555V24.6667H54.316V20.2222H40.9826V11.3333H58.7604V6.88889H32.0938V38H58.7604V33.5555H40.9826Z" fill="black"/>
<path d="M18.7778 6.88889V11.3333H23.2222V15.7778H27.6667V29.1111H23.2222V33.5555H18.7778V38H1V6.88889H18.7778ZM14.3333 11.3333H9.88889V33.5555H14.3333V29.1111H18.7778V15.7778H14.3333V11.3333Z" fill="black"/>
<path fill-rule="evenodd" clip-rule="evenodd" d="M19.7778 5.88889V10.3333H24.2222V14.7778H28.6667V30.1111H24.2222V34.5555H19.7778V39H0V5.88889H19.7778ZM18.7778 33.5555H23.2222V29.1111H27.6667V15.7778H23.2222V11.3333H18.7778V6.88889H1V38H18.7778V33.5555ZM13.3333 28.1111H17.7778V16.7778H13.3333V12.3333H10.8889V32.5555H13.3333V28.1111ZM14.3333 33.5555H9.88889V11.3333H14.3333V15.7778H18.7778V29.1111H14.3333V33.5555Z" fill="black"/>
<path d="M138.708 1V5.44444H143.153V14.3333H147.597V1H156.486V32.1111H147.597V27.6667H143.153V23.2222H138.708V14.3333H134.264V32.1111H125.375V1H138.708Z" fill="white"/>
<path fill-rule="evenodd" clip-rule="evenodd" d="M139.708 0V4.44444H144.153V13.3333H146.597V0H157.486V33.1111H146.597V28.6667H142.153V24.2222H137.708V15.3333H135.264V33.1111H124.375V0H139.708ZM134.264 14.3333H138.708V23.2222H143.153V27.6667H147.597V32.1111H156.486V1H147.597V14.3333H143.153V5.44444H138.708V1H125.375V32.1111H134.264V14.3333Z" fill="black"/>
<path d="M94.2812 32.1111V1H120.948V5.44444H103.17V14.3333H116.503V18.7778H103.17V27.6667H120.948V32.1111H94.2812Z" fill="white"/>
<path fill-rule="evenodd" clip-rule="evenodd" d="M93.2812 33.1111V0H121.948V6.44444H104.17V13.3333H117.503V19.7778H104.17V26.6667H121.948V33.1111H93.2812ZM103.17 27.6667V18.7778H116.503V14.3333H103.17V5.44444H120.948V1H94.2812V32.1111H120.948V27.6667H103.17Z" fill="black"/>
<path d="M67.6319 27.6667H63.1875V5.44444H67.6319V1H85.4097V5.44444H72.0764V27.6667H80.9653V18.7778H76.5208V14.3333H89.8542V32.1111H67.6319V27.6667Z" fill="white"/>
<path fill-rule="evenodd" clip-rule="evenodd" d="M62.1875 28.6667V4.44444H66.6319V0H86.4097V6.44444H73.0764V26.6667H79.9653V19.7778H75.5208V13.3333H90.8542V33.1111H66.6319V28.6667H62.1875ZM67.6319 27.6667V32.1111H89.8542V14.3333H76.5208V18.7778H80.9653V27.6667H72.0764V5.44444H85.4097V1H67.6319V5.44444H63.1875V27.6667H67.6319Z" fill="black"/>
<path d="M32.0938 32.1111V1H58.7604V5.44444H40.9826V14.3333H54.316V18.7778H40.9826V27.6667H58.7604V32.1111H32.0938Z" fill="white"/>
<path fill-rule="evenodd" clip-rule="evenodd" d="M31.0938 33.1111V0H59.7604V6.44444H41.9826V13.3333H55.316V19.7778H41.9826V26.6667H59.7604V33.1111H31.0938ZM40.9826 27.6667V18.7778H54.316V14.3333H40.9826V5.44444H58.7604V1H32.0938V32.1111H58.7604V27.6667H40.9826Z" fill="black"/>
<path d="M18.7778 1V5.44444H23.2222V9.88889H27.6667V23.2222H23.2222V27.6667H18.7778V32.1111H1V1H18.7778ZM14.3333 5.44444H9.88889V27.6667H14.3333V23.2222H18.7778V9.88889H14.3333V5.44444Z" fill="white"/>
<path fill-rule="evenodd" clip-rule="evenodd" d="M19.7778 0V4.44444H24.2222V8.88889H28.6667V24.2222H24.2222V28.6667H19.7778V33.1111H0V0H19.7778ZM18.7778 27.6667H23.2222V23.2222H27.6667V9.88889H23.2222V5.44444H18.7778V1H1V32.1111H18.7778V27.6667ZM13.3333 22.2222H17.7778V10.8889H13.3333V6.44444H10.8889V26.6667H13.3333V22.2222ZM14.3333 27.6667H9.88889V5.44444H14.3333V9.88889H18.7778V23.2222H14.3333V27.6667Z" fill="black"/>
</svg>
