<svg width="158" height="40" viewBox="0 0 158 40" fill="none" xmlns="http://www.w3.org/2000/svg">
<path d="M138.708 7.38892V11.8334H143.153V20.7222H147.597V7.38892H156.486V38.5H147.597V34.0556H143.153V29.6111H138.708V20.7222H134.264V38.5H125.375V7.38892H138.708Z" fill="white" fill-opacity="0.33"/>
<path fill-rule="evenodd" clip-rule="evenodd" d="M139.705 6.38892V10.8334H144.149V19.7222H146.6V6.38892H157.483V39.5H146.6V35.0556H142.156V30.6111H137.711V21.7222H135.26V39.5H124.378V6.38892H139.705ZM134.264 20.7222H138.708V29.6111H143.153V34.0556H147.597V38.5H156.486V7.38892H147.597V20.7222H143.153V11.8334H138.708V7.38892H125.375V38.5H134.264V20.7222Z" fill="black"/>
<path d="M94.2811 38.5V7.38892H120.948V11.8334H103.17V20.7222H116.503V25.1667H103.17V34.0556H120.948V38.5H94.2811Z" fill="white" fill-opacity="0.33"/>
<path fill-rule="evenodd" clip-rule="evenodd" d="M93.2844 39.5V6.38892H121.944V12.8334H104.167V19.7222H117.5V26.1667H104.167V33.0556H121.944V39.5H93.2844ZM103.17 34.0556V25.1667H116.503V20.7222H103.17V11.8334H120.948V7.38892H94.2811V38.5H120.948V34.0556H103.17Z" fill="black"/>
<path d="M67.6318 34.0556H63.1874V11.8334H67.6318V7.38892H85.4096V11.8334H72.0763V34.0556H80.9652V25.1667H76.5207V20.7222H89.854V38.5H67.6318V34.0556Z" fill="white" fill-opacity="0.33"/>
<path fill-rule="evenodd" clip-rule="evenodd" d="M62.1907 35.0556V10.8334H66.6351V6.38892H86.4063V12.8334H73.073V33.0556H79.9685V26.1667H75.524V19.7222H90.8507V39.5H66.6351V35.0556H62.1907ZM67.6318 34.0556V38.5H89.854V20.7222H76.5207V25.1667H80.9652V34.0556H72.0763V11.8334H85.4096V7.38892H67.6318V11.8334H63.1874V34.0556H67.6318Z" fill="black"/>
<path d="M32.0936 38.5V7.38892H58.7603V11.8334H40.9825V20.7222H54.3159V25.1667H40.9825V34.0556H58.7603V38.5H32.0936Z" fill="white" fill-opacity="0.33"/>
<path fill-rule="evenodd" clip-rule="evenodd" d="M31.0969 39.5V6.38892H59.757V12.8334H41.9792V19.7222H55.3126V26.1667H41.9792V33.0556H59.757V39.5H31.0969ZM40.9825 34.0556V25.1667H54.3159V20.7222H40.9825V11.8334H58.7603V7.38892H32.0936V38.5H58.7603V34.0556H40.9825Z" fill="black"/>
<path d="M18.7777 7.38892V11.8334H23.2221V16.2778H27.6665V29.6111H23.2221V34.0556H18.7777V38.5H0.99988V7.38892H18.7777ZM14.3332 11.8334H9.88877V34.0556H14.3332V29.6111H18.7777V16.2778H14.3332V11.8334Z" fill="white" fill-opacity="0.33"/>
<path fill-rule="evenodd" clip-rule="evenodd" d="M19.7744 6.38892V10.8334H24.2188V15.2778H28.6632V30.6111H24.2188V35.0556H19.7744V39.5H0.00317383V6.38892H19.7744ZM18.7777 34.0556H23.2221V29.6111H27.6665V16.2778H23.2221V11.8334H18.7777V7.38892H0.99988V38.5H18.7777V34.0556ZM13.3365 28.6111H17.781V17.2778H13.3365V12.8334H10.8855V33.0556H13.3365V28.6111ZM14.3332 34.0556H9.88877V11.8334H14.3332V16.2778H18.7777V29.6111H14.3332V34.0556Z" fill="black"/>
<path d="M138.708 1.5V5.94444H143.153V14.8333H147.597V1.5H156.486V32.6111H147.597V28.1667H143.153V23.7222H138.708V14.8333H134.264V32.6111H125.375V1.5H138.708Z" fill="#FF3399"/>
<path fill-rule="evenodd" clip-rule="evenodd" d="M139.705 0.5V4.94444H144.149V13.8333H146.6V0.5H157.483V33.6111H146.6V29.1667H142.156V24.7222H137.711V15.8333H135.26V33.6111H124.378V0.5H139.705ZM134.264 14.8333H138.708V23.7222H143.153V28.1667H147.597V32.6111H156.486V1.5H147.597V14.8333H143.153V5.94444H138.708V1.5H125.375V32.6111H134.264V14.8333Z" fill="black"/>
<path d="M94.2811 32.6111V1.5H120.948V5.94444H103.17V14.8333H116.503V19.2778H103.17V28.1667H120.948V32.6111H94.2811Z" fill="#FF3399"/>
<path fill-rule="evenodd" clip-rule="evenodd" d="M93.2844 33.6111V0.5H121.944V6.94444H104.167V13.8333H117.5V20.2778H104.167V27.1667H121.944V33.6111H93.2844ZM103.17 28.1667V19.2778H116.503V14.8333H103.17V5.94444H120.948V1.5H94.2811V32.6111H120.948V28.1667H103.17Z" fill="black"/>
<path d="M67.6318 28.1667H63.1874V5.94444H67.6318V1.5H85.4096V5.94444H72.0763V28.1667H80.9652V19.2778H76.5207V14.8333H89.854V32.6111H67.6318V28.1667Z" fill="#FF3399"/>
<path fill-rule="evenodd" clip-rule="evenodd" d="M62.1907 29.1667V4.94444H66.6351V0.5H86.4063V6.94444H73.073V27.1667H79.9685V20.2778H75.524V13.8333H90.8507V33.6111H66.6351V29.1667H62.1907ZM67.6318 28.1667V32.6111H89.854V14.8333H76.5207V19.2778H80.9652V28.1667H72.0763V5.94444H85.4096V1.5H67.6318V5.94444H63.1874V28.1667H67.6318Z" fill="black"/>
<path d="M32.0936 32.6111V1.5H58.7603V5.94444H40.9825V14.8333H54.3159V19.2778H40.9825V28.1667H58.7603V32.6111H32.0936Z" fill="#FF3399"/>
<path fill-rule="evenodd" clip-rule="evenodd" d="M31.0969 33.6111V0.5H59.757V6.94444H41.9792V13.8333H55.3126V20.2778H41.9792V27.1667H59.757V33.6111H31.0969ZM40.9825 28.1667V19.2778H54.3159V14.8333H40.9825V5.94444H58.7603V1.5H32.0936V32.6111H58.7603V28.1667H40.9825Z" fill="black"/>
<path d="M18.7777 1.5V5.94444H23.2221V10.3889H27.6665V23.7222H23.2221V28.1667H18.7777V32.6111H0.99988V1.5H18.7777ZM14.3332 5.94444H9.88877V28.1667H14.3332V23.7222H18.7777V10.3889H14.3332V5.94444Z" fill="#FF3399"/>
<path fill-rule="evenodd" clip-rule="evenodd" d="M19.7744 0.5V4.94444H24.2188V9.38889H28.6632V24.7222H24.2188V29.1667H19.7744V33.6111H0.00317383V0.5H19.7744ZM18.7777 28.1667H23.2221V23.7222H27.6665V10.3889H23.2221V5.94444H18.7777V1.5H0.99988V32.6111H18.7777V28.1667ZM13.3365 22.7222H17.781V11.3889H13.3365V6.94444H10.8855V27.1667H13.3365V22.7222ZM14.3332 28.1667H9.88877V5.94444H14.3332V10.3889H18.7777V23.7222H14.3332V28.1667Z" fill="black"/>
</svg>
