<svg width="48" height="48" viewBox="0 0 48 48" fill="none" xmlns="http://www.w3.org/2000/svg">
<path fill-rule="evenodd" clip-rule="evenodd" d="M38.7724 38.5813C38.3168 39.3928 37.6351 40.0806 36.7282 40.6448C35.4998 41.399 34.0898 41.7754 32.4982 41.7754C30.7389 41.7754 29.175 41.3428 27.8072 40.477C26.4666 39.6119 25.4053 38.369 24.6234 36.7496C23.8698 35.1302 23.4927 33.217 23.4927 31.0112C23.4927 28.7493 23.8698 26.8228 24.6234 25.2312C25.4053 23.6395 26.4666 22.4111 27.8072 21.5453C29.175 20.6795 30.7389 20.247 32.4982 20.247C34.0337 20.247 35.416 20.6096 36.6444 21.336C37.5204 21.8537 38.1907 22.4775 38.6553 23.2082V15.1789C38.6553 13.9505 38.9763 13.0147 39.6182 12.3727C40.2608 11.7302 41.1821 11.4092 42.3828 11.4092C43.5556 11.4092 44.4631 11.7302 45.1056 12.3727C45.7753 13.0147 46.1108 13.9505 46.1108 15.1789V37.9225C46.1108 39.1509 45.7892 40.0861 45.1473 40.7286C44.5331 41.3706 43.6256 41.6922 42.425 41.6922C41.2521 41.6922 40.3447 41.3706 39.7021 40.7286C39.1802 40.2067 38.8701 39.4906 38.7724 38.5813ZM34.8856 36.2886C35.6392 36.2886 36.3095 36.107 36.896 35.7444C37.4824 35.3535 37.9289 34.7809 38.236 34.0267C38.5714 33.2454 38.7386 32.2402 38.7386 31.0112C38.7386 29.1402 38.376 27.8002 37.6495 26.9905C36.9237 26.1525 36.0024 25.7338 34.8856 25.7338C34.1315 25.7338 33.4611 25.9154 32.8753 26.2786C32.2889 26.6412 31.8279 27.2138 31.493 27.9957C31.1576 28.7493 30.9905 29.755 30.9905 31.0112C30.9905 32.8544 31.3531 34.1944 32.0795 35.0325C32.8053 35.8699 33.7405 36.2886 34.8856 36.2886ZM17.6331 41.7754C15.5389 41.7754 13.8079 41.4545 12.4395 40.8125C11.0995 40.1699 10.0937 39.207 9.42403 37.9225C8.75372 36.6096 8.41886 34.9764 8.41886 33.0215V26.1947H6.99437C6.10082 26.1947 5.40276 25.957 4.90018 25.4828C4.42535 25.0079 4.18823 24.3237 4.18823 23.4302C4.18823 22.5366 4.42535 21.8663 4.90018 21.4198C5.40276 20.945 6.10082 20.7073 6.99437 20.7073H8.41886V18.1105C8.41886 16.8821 8.73984 15.9469 9.38179 15.3044C10.0244 14.6624 10.9457 14.3414 12.1463 14.3414C13.347 14.3414 14.2683 14.6624 14.9108 15.3044C15.5528 15.9469 15.8743 16.8821 15.8743 18.1105V20.7073H19.3086C20.2299 20.7073 20.9279 20.945 21.4028 21.4198C21.9054 21.8663 22.1569 22.5366 22.1569 23.4302C22.1569 24.3237 21.9054 25.0079 21.4028 25.4828C20.9279 25.957 20.2299 26.1947 19.3086 26.1947H15.8743V32.7705C15.8743 33.8035 16.1115 34.5715 16.5863 35.0741C17.0889 35.5489 17.8708 35.7861 18.9315 35.7861C19.3224 35.7861 19.6995 35.7444 20.0627 35.6606C20.4254 35.5767 20.7608 35.5351 21.0679 35.5351C21.5144 35.5067 21.8776 35.6467 22.1569 35.9538C22.4363 36.2331 22.5757 36.889 22.5757 37.9225C22.5757 38.7599 22.4502 39.4719 22.1986 40.0583C21.9476 40.617 21.5005 41.0219 20.8586 41.2729C20.4676 41.4128 19.9366 41.5244 19.2669 41.6083C18.5966 41.7199 18.0518 41.7754 17.6331 41.7754Z" fill="black"/>
<path fill-rule="evenodd" clip-rule="evenodd" d="M25.8495 36.9964C24.4214 36.0745 23.3022 34.7562 22.4852 33.0638L22.4822 33.0578C21.6906 31.3576 21.3045 29.3689 21.3045 27.1064C21.3045 24.7902 21.69 22.7859 22.484 21.1104L22.4871 21.1037C23.3046 19.4397 24.4238 18.1371 25.8495 17.2164L25.8531 17.214C27.309 16.2927 28.9682 15.8372 30.8144 15.8372C32.4331 15.8372 33.9053 16.2215 35.2176 16.9968C35.6858 17.2731 36.1027 17.5808 36.4665 17.9205V11.2741C36.4665 9.96 36.8116 8.877 37.5778 8.11075C38.3423 7.34632 39.409 7 40.6989 7C41.9629 7 43.0127 7.34753 43.7748 8.10713C44.5706 8.87217 44.9314 9.95638 44.9314 11.2741V34.0177C44.9314 35.3294 44.5881 36.4106 43.8242 37.1768C43.0851 37.9467 42.0269 38.2918 40.7411 38.2918C39.4747 38.2918 38.4237 37.9431 37.6617 37.1804C37.2979 36.8166 37.0288 36.3816 36.8472 35.8851C36.4242 36.3671 35.9108 36.7949 35.3111 37.1684L35.3087 37.1702C33.9922 37.9774 32.4893 38.3757 30.8144 38.3757C28.9682 38.3757 27.309 37.9201 25.8531 36.9988L25.8495 36.9964ZM36.0888 29.9234C36.3874 29.226 36.5503 28.295 36.5503 27.1064C36.5503 25.2777 36.1914 24.0927 35.5904 23.4224L35.5844 23.4158C34.9551 22.6899 34.1738 22.3334 33.2018 22.3334C32.5327 22.3334 31.9559 22.4932 31.4569 22.8028C30.9773 23.0996 30.5767 23.5805 30.2726 24.2894L30.2702 24.296C29.9745 24.9603 29.811 25.8871 29.811 27.1064C29.811 28.9026 30.1682 30.0948 30.7764 30.7971C31.4032 31.5199 32.1978 31.8795 33.2018 31.8795C33.8673 31.8795 34.4417 31.7208 34.9394 31.4149C35.4257 31.0885 35.8112 30.604 36.0852 29.9319L36.0888 29.9234ZM10.5379 37.3626C9.10193 36.6742 8.01471 35.6347 7.29251 34.2512L7.2907 34.247C6.57393 32.8442 6.23003 31.1265 6.23003 29.1167V22.7943H5.31053C4.32709 22.7943 3.49146 22.5313 2.87002 21.9448L2.86459 21.9394L2.85976 21.9346C2.26245 21.3372 2 20.507 2 19.5254C2 18.5462 2.26125 17.7208 2.87002 17.1476C3.49146 16.5612 4.32769 16.2981 5.31053 16.2981H6.23003V14.2057C6.23003 12.8922 6.57514 11.8092 7.34138 11.043C8.10581 10.2786 9.17252 9.93164 10.4625 9.93164C11.7524 9.93164 12.8191 10.2786 13.5836 11.043C14.3504 11.8092 14.6949 12.8922 14.6949 14.2057V16.2981H17.6247C18.6233 16.2981 19.4655 16.5551 20.0652 17.1476C20.7 17.7184 20.9775 18.5432 20.9775 19.5254C20.9775 20.5125 20.6982 21.3439 20.0707 21.9394C19.471 22.5361 18.6263 22.7943 17.6247 22.7943H14.6949V28.8658C14.6949 29.8233 14.9139 30.4393 15.259 30.8121C15.6301 31.1554 16.2582 31.3769 17.2476 31.3769C17.6024 31.3769 17.9415 31.3389 18.2655 31.264C18.6522 31.1748 19.0209 31.1271 19.3684 31.1253C19.944 31.0933 20.452 31.2809 20.8387 31.7015C21.0746 31.9422 21.2044 32.2855 21.281 32.6457C21.3606 33.021 21.3962 33.4825 21.3962 34.0177C21.3962 34.9028 21.2641 35.6866 20.9787 36.3526L20.9751 36.3605C20.6626 37.0549 20.1069 37.5455 19.3581 37.8381L19.3515 37.8411L19.3443 37.8435C18.9062 37.9998 18.3379 38.1168 17.6555 38.2031C16.9773 38.3153 16.4054 38.3757 15.9493 38.3757C13.808 38.3757 11.9974 38.048 10.5415 37.3644L10.5379 37.3626Z" fill="white" stroke="black" stroke-width="1.00758"/>
</svg>
